<svg width="429.4662353515625px" height="123.23251953124999px" xmlns="http://www.w3.org/2000/svg" viewBox="35.266882324218756 13.383740234375004 429.4662353515625 123.23251953124999" style="background: rgba(0, 0, 0, 0);" preserveAspectRatio="xMidYMid"><defs><filter id="editing-metal-beveled"><feGaussianBlur stdDeviation="4" in="SourceAlpha" result="blur"></feGaussianBlur><feSpecularLighting surfaceScale="5" specularConstant="0.8" specularExponent="7.5" lighting-color="#fff" in="blur" result="specular"><fePointLight x="-250" y="-50" z="300"></fePointLight></feSpecularLighting><feComposite operator="in" in="specular" in2="SourceAlpha" result="comp"></feComposite><feComposite in="SourceGraphic" in2="comp" operator="arithmetic" k1="0" k2="1" k3="1" k4="0"></feComposite></filter></defs><g filter="url(#editing-metal-beveled)"><g transform="translate(104.9478063583374, 108.85499954223633)"><path d="M23.36-41.28L23.36-41.28L23.36-41.28Q28.42-41.28 30.34-43.26L30.34-43.26L31.55-42.62L31.55-42.62Q28.80-37.63 28.35-30.98L28.35-30.98L26.75-30.98L26.75-30.98Q26.18-33.73 26.18-37.95L26.18-37.95L26.18-37.95Q24.51-37.44 22.02-37.44L22.02-37.44L22.02-37.44Q19.52-37.44 13.76-37.95L13.76-37.95L13.76-37.95Q13.25-33.22 13.25-23.42L13.25-23.42L13.25-23.42Q16-22.91 18.62-22.91L18.62-22.91L18.62-22.91Q23.62-22.91 24.96-25.66L24.96-25.66L26.24-25.41L26.24-25.41Q25.66-23.36 25.66-20.51L25.66-20.51L25.66-20.51Q25.66-17.66 26.05-14.91L26.05-14.91L24.58-14.66L24.58-14.66Q23.62-17.09 23.30-20.35L23.30-20.35L23.30-20.35Q20.93-20.54 18.37-20.54L18.37-20.54L18.37-20.54Q15.81-20.54 13.25-20.22L13.25-20.22L13.25-20.22Q13.31-7.17 14.08-2.24L14.08-2.24L14.08-2.24Q17.28-1.92 21.12-1.02L21.12-1.02L20.93 0.51L20.93 0.51Q16.19 0 10.66 0L10.66 0L10.66 0Q5.12 0 1.73 0.51L1.73 0.51L1.47-1.09L1.47-1.09Q4.35-1.98 7.62-2.43L7.62-2.43L7.62-2.43Q8.32-7.68 8.32-18.94L8.32-18.94L8.32-22.72L8.32-22.72Q8.32-29.06 7.55-38.27L7.55-38.27L7.42-38.27L7.42-38.27Q-0.13-38.27-2.24-36.22L-2.24-36.22L-2.24-36.22Q-2.69-35.33-2.69-33.41L-2.69-33.41L-2.69-33.41Q-2.69-31.49-2.05-30.78L-2.05-30.78L-2.11-30.34L-2.11-30.34Q-3.71-29.38-5.31-27.65L-5.31-27.65L-5.31-27.65Q-6.08-27.71-6.56-28.29L-6.56-28.29L-6.56-28.29Q-7.04-28.86-7.04-29.63L-7.04-29.63L-7.04-29.63Q-7.04-32.77-3.26-37.12L-3.26-37.12L-3.26-37.12Q0.51-41.47 3.78-42.62L3.78-42.62L3.78-42.62Q8.26-42.43 14.24-41.86L14.24-41.86L14.24-41.86Q20.22-41.28 23.36-41.28ZM45.18-39.42L45.18-39.42L45.18-39.42Q44.48-34.62 44.48-21.50L44.48-21.50L44.48-21.50Q44.48-8.38 45.31-2.24L45.31-2.24L45.31-2.24Q48.70-1.92 52.35-1.02L52.35-1.02L52.16 0.51L52.16 0.51Q47.42 0 41.89 0L41.89 0L41.89 0Q36.35 0 32.96 0.51L32.96 0.51L32.70-1.09L32.70-1.09Q35.58-1.98 38.85-2.43L38.85-2.43L38.85-2.43Q39.55-7.68 39.55-18.94L39.55-18.94L39.55-22.72L39.55-22.72Q39.55-33.09 38.72-39.23L38.72-39.23L38.72-39.23Q35.46-39.68 32.58-40.58L32.58-40.58L32.83-42.18L32.83-42.18Q36.22-41.66 41.76-41.66L41.76-41.66L41.76-41.66Q47.30-41.66 52.03-42.18L52.03-42.18L52.22-40.64L52.22-40.64Q48.58-39.74 45.18-39.42ZM61.18-2.24L61.18-2.24L61.18-2.24Q62.02-8.38 62.02-19.87L62.02-19.87L62.02-19.87Q62.02-31.36 61.38-38.27L61.38-38.27L61.38-38.27Q54.40-38.14 52.42-36.22L52.42-36.22L52.42-36.22Q51.97-35.33 51.97-33.41L51.97-33.41L51.97-33.41Q51.97-31.49 52.61-30.78L52.61-30.78L52.54-30.34L52.54-30.34Q50.94-29.38 49.34-27.65L49.34-27.65L49.34-27.65Q48.58-27.71 48.10-28.29L48.10-28.29L48.10-28.29Q47.62-28.86 47.62-29.63L47.62-29.63L47.62-29.63Q47.62-32.58 50.98-36.61L50.98-36.61L50.98-36.61Q54.34-40.64 57.41-42.18L57.41-42.18L57.41-42.18Q62.85-41.66 73.15-41.66L73.15-41.66L73.15-41.66Q79.68-41.66 83.07-39.71L83.07-39.71L83.07-39.71Q86.46-37.76 86.46-32.26L86.46-32.26L86.46-32.26Q86.46-24.45 78.46-21.38L78.46-21.38L87.42-2.43L87.42-2.43Q90.69-1.98 93.57-1.09L93.57-1.09L93.31 0.51L93.31 0.51Q89.54 0 85.15 0L85.15 0L85.15 0Q80.77 0 78.78 0.26L78.78 0.26L78.53-0.64L78.53-0.64Q79.62-1.73 79.62-4.29L79.62-4.29L79.62-4.29Q79.62-9.41 73.60-20.61L73.60-20.61L73.60-20.61Q72-20.93 69.89-20.93L69.89-20.93L70.08-22.34L70.85-22.34L70.85-22.34Q75.46-22.34 77.95-24.61L77.95-24.61L77.95-24.61Q80.45-26.88 80.45-31.20L80.45-31.20L80.45-31.20Q80.45-35.52 78.21-36.99L78.21-36.99L78.21-36.99Q75.97-38.46 71.17-38.46L71.17-38.46L71.17-38.46Q68.93-38.46 67.46-38.27L67.46-38.27L67.46-38.27Q66.94-32.58 66.94-19.90L66.94-19.90L66.94-19.90Q66.94-7.23 67.65-2.43L67.65-2.43L67.65-2.43Q70.91-1.98 73.79-1.09L73.79-1.09L73.54 0.51L73.54 0.51Q70.14 0 64.61 0L64.61 0L64.61 0Q59.07 0 54.34 0.51L54.34 0.51L54.14-1.02L54.14-1.02Q57.79-1.92 61.18-2.24ZM117.63-36.22L117.63-36.22L117.63-36.22Q114.56-38.02 110.34-38.02L110.34-38.02L110.34-38.02Q106.11-38.02 103.49-35.84L103.49-35.84L103.49-35.84Q103.42-34.94 103.42-34.11L103.42-34.11L103.42-34.11Q103.42-23.87 114.37-23.87L114.37-23.87L114.05-21.50L113.28-21.50L113.28-21.50Q108.22-21.50 104.93-19.49L104.93-19.49L104.93-19.49Q101.63-17.47 101.63-12.99L101.63-12.99L101.63-12.99Q101.63-8.51 104.70-6.05L104.70-6.05L104.70-6.05Q107.78-3.58 111.94-3.58L111.94-3.58L111.94-3.58Q116.10-3.58 118.46-5.12L118.46-5.12L118.46-5.12Q118.91-6.02 118.91-7.94L118.91-7.94L118.91-7.94Q118.91-9.86 118.27-10.56L118.27-10.56L118.34-11.01L118.34-11.01Q119.94-11.97 121.54-13.70L121.54-13.70L121.54-13.70Q122.30-13.63 122.78-13.06L122.78-13.06L122.78-13.06Q123.26-12.48 123.26-11.71L123.26-11.71L123.26-11.71Q123.26-7.81 119.58-4.13L119.58-4.13L119.58-4.13Q115.90-0.45 111.55 0.96L111.55 0.96L111.55 0.96Q104.70 0.96 100.16-2.37L100.16-2.37L100.16-2.37Q95.62-5.70 95.62-11.84L95.62-11.84L95.62-11.84Q95.62-16.26 99.33-19.20L99.33-19.20L99.33-19.20Q103.04-22.14 107.78-22.14L107.78-22.14L107.78-22.40L107.78-22.40Q103.42-22.66 100.51-24.83L100.51-24.83L100.51-24.83Q97.60-27.01 97.60-30.85L97.60-30.85L97.60-30.85Q99.90-34.94 103.71-38.21L103.71-38.21L103.71-38.21Q107.52-41.47 111.87-42.62L111.87-42.62L111.87-42.62Q116.42-42.62 120.83-41.41L120.83-41.41L120.83-41.41Q121.86-41.92 123.46-43.39L123.46-43.39L124.80-42.50L124.80-42.50Q120.58-37.38 119.62-30.27L119.62-30.27L117.95-30.27L117.95-30.27Q117.95-33.79 117.63-36.22ZM139.20-39.42L139.20-39.42L139.20-39.42Q138.37-33.79 138.37-21.54L138.37-21.54L138.37-21.54Q138.37-9.28 138.88-3.52L138.88-3.52L138.88-3.52Q141.06-3.39 142.98-3.39L142.98-3.39L142.98-3.39Q150.53-3.39 152.64-5.44L152.64-5.44L152.64-5.44Q153.09-6.34 153.09-8.26L153.09-8.26L153.09-8.26Q153.09-10.18 152.45-10.88L152.45-10.88L152.51-11.33L152.51-11.33Q154.11-12.29 155.71-14.02L155.71-14.02L155.71-14.02Q156.48-13.95 156.96-13.38L156.96-13.38L156.96-13.38Q157.44-12.80 157.44-12.03L157.44-12.03L157.44-12.03Q157.44-8.90 153.66-4.54L153.66-4.54L153.66-4.54Q149.89-0.19 146.62 0.96L146.62 0.96L146.62 0.96Q141.12 0.77 134.72-0.90L134.72-0.90L134.72-0.90Q133.82 0.26 133.25 2.05L133.25 2.05L131.90 1.66L131.90 1.66Q133.25-4.80 133.44-19.52L133.44-19.52L133.44-22.72L133.44-22.72Q133.44-33.92 132.74-39.23L132.74-39.23L132.74-39.23Q129.47-39.68 126.59-40.58L126.59-40.58L126.85-42.18L126.85-42.18Q130.24-41.66 135.78-41.66L135.78-41.66L135.78-41.66Q141.31-41.66 146.05-42.18L146.05-42.18L146.24-40.64L146.24-40.64Q142.40-39.74 139.20-39.42ZM168.38-39.42L168.38-39.42L168.38-39.42Q167.68-34.62 167.68-21.50L167.68-21.50L167.68-21.50Q167.68-8.38 168.51-2.24L168.51-2.24L168.51-2.24Q171.90-1.92 175.55-1.02L175.55-1.02L175.36 0.51L175.36 0.51Q170.62 0 165.09 0L165.09 0L165.09 0Q159.55 0 156.16 0.51L156.16 0.51L155.90-1.09L155.90-1.09Q158.78-1.98 162.05-2.43L162.05-2.43L162.05-2.43Q162.75-7.68 162.75-18.94L162.75-18.94L162.75-22.72L162.75-22.72Q162.75-33.09 161.92-39.23L161.92-39.23L161.92-39.23Q158.66-39.68 155.78-40.58L155.78-40.58L156.03-42.18L156.03-42.18Q159.42-41.66 164.96-41.66L164.96-41.66L164.96-41.66Q170.50-41.66 175.23-42.18L175.23-42.18L175.42-40.64L175.42-40.64Q171.78-39.74 168.38-39.42ZM195.52-4.22L195.52-4.22L195.52-4.22Q198.53-4.22 201.79-6.02L201.79-6.02L201.79-11.26L201.79-11.26Q201.79-12.74 201.54-15.55L201.54-15.55L201.54-15.55Q199.30-16.19 195.71-16.83L195.71-16.83L195.90-18.18L195.90-18.18Q197.38-17.98 198.72-17.98L198.72-17.98L198.72-17.98Q204.35-17.98 209.02-21.12L209.02-21.12L209.60-19.97L209.60-19.97Q208.13-18.82 207.30-17.66L207.30-17.66L207.30-17.66Q206.08-6.53 206.02 3.14L206.02 3.14L206.02 3.14Q204.16 6.53 199.90 9.66L199.90 9.66L199.90 9.66Q195.65 12.80 192.13 12.80L192.13 12.80L192.13 12.80Q191.17 12.80 190.53 12.29L190.53 12.29L190.53 12.29Q189.89 11.78 189.89 10.88L189.89 10.88L189.89 10.88Q191.74 9.47 193.02 7.62L193.02 7.62L193.47 7.55L193.47 7.55Q194.88 8.64 196.74 8.64L196.74 8.64L196.74 8.64Q198.59 8.64 199.30 8.26L199.30 8.26L199.30 8.26Q201.92 4.74 201.92-3.26L201.92-3.26L201.92-3.26Q198.40-0.51 194.11 0.96L194.11 0.96L194.11 0.96Q186.43 0.96 182.56-3.87L182.56-3.87L182.56-3.87Q178.69-8.70 178.69-17.25L178.69-17.25L178.69-17.25Q178.69-25.79 183.39-33.12L183.39-33.12L183.39-33.12Q188.10-40.45 196.03-42.62L196.03-42.62L196.03-42.62Q202.69-42.62 209.41-41.41L209.41-41.41L209.34-40L209.34-40Q207.74-40 206.27-39.42L206.27-39.42L206.27-39.42Q204.54-35.39 204.16-30.40L204.16-30.40L202.56-30.40L202.56-30.40Q201.98-33.02 201.98-36.35L201.98-36.35L201.98-36.35Q198.98-38.02 194.62-38.02L194.62-38.02L194.62-38.02Q190.27-38.02 187.65-35.84L187.65-35.84L187.65-35.84Q184.38-30.27 184.38-21.70L184.38-21.70L184.38-21.70Q184.38-4.22 195.52-4.22ZM248.64-41.73L248.64-41.73L248.64-18.94L248.64-18.94Q248.64-6.98 249.47-2.24L249.47-2.24L249.47-2.24Q252.86-1.92 256.51-1.02L256.51-1.02L256.32 0.51L256.32 0.51Q252.22 0 246.62 0L246.62 0L246.62 0Q241.02 0 237.12 0.51L237.12 0.51L236.86-1.09L236.86-1.09Q239.74-1.98 243.01-2.43L243.01-2.43L243.01-2.43Q243.65-8.90 243.71-20.99L243.71-20.99L243.71-20.99Q238.98-21.44 234.30-21.44L234.30-21.44L234.30-21.44Q229.63-21.44 224.90-20.99L224.90-20.99L224.90-20.99Q224.96-7.30 225.73-2.24L225.73-2.24L225.73-2.24Q229.12-1.92 232.77-1.02L232.77-1.02L232.58 0.51L232.58 0.51Q227.84 0 222.30 0L222.30 0L222.30 0Q216.77 0 213.38 0.51L213.38 0.51L213.12-1.09L213.12-1.09Q216-1.98 219.26-2.43L219.26-2.43L219.26-2.43Q219.97-7.68 219.97-18.94L219.97-18.94L219.97-22.72L219.97-22.72Q219.97-31.10 219.26-38.14L219.26-38.14L219.20-38.14L219.20-38.14Q211.65-38.14 209.54-36.10L209.54-36.10L209.54-36.10Q209.09-35.20 209.09-33.28L209.09-33.28L209.09-33.28Q209.09-31.36 209.73-30.66L209.73-30.66L209.66-30.21L209.66-30.21Q208.06-29.25 206.46-27.52L206.46-27.52L206.46-27.52Q205.70-27.58 205.22-28.16L205.22-28.16L205.22-28.16Q204.74-28.74 204.74-29.50L204.74-29.50L204.74-29.50Q204.74-32.64 208.51-36.99L208.51-36.99L208.51-36.99Q212.29-41.34 215.55-42.50L215.55-42.50L215.55-42.50Q216.06-42.50 220.16-42.08L220.16-42.08L220.16-42.08Q224.26-41.66 226.59-41.66L226.59-41.66L226.59-41.66Q228.93-41.66 230.91-42.05L230.91-42.05L231.17-40.45L231.17-40.45Q228.67-39.49 225.47-38.72L225.47-38.72L225.47-38.72Q225.02-33.92 224.90-24.45L224.90-24.45L224.90-24.45Q229.76-23.81 234.56-23.81L234.56-23.81L234.56-23.81Q239.36-23.81 243.71-24.38L243.71-24.38L243.71-24.38Q243.65-35.84 243.14-41.79L243.14-41.79L243.14-41.79Q244.35-45.70 249.06-50.30L249.06-50.30L249.06-50.30Q253.76-54.91 257.28-54.91L257.28-54.91L257.28-54.91Q258.05-54.91 258.66-54.43L258.66-54.43L258.66-54.43Q259.26-53.95 259.26-53.18L259.26-53.18L259.26-53.18Q257.54-51.58 256.58-49.98L256.58-49.98L256.13-49.92L256.13-49.92Q255.42-50.56 253.50-50.56L253.50-50.56L253.50-50.56Q251.58-50.56 250.69-50.11L250.69-50.11L250.69-50.11Q248.64-47.74 248.64-41.73ZM265.02-42.62L265.02-42.62Q269.44-42.43 275.17-41.86L275.17-41.86L275.17-41.86Q280.90-41.28 283.33-41.28L283.33-41.28L283.33-41.28Q285.76-41.28 286.98-41.66L286.98-41.66L286.98-41.66Q289.92-44.48 291.14-45.95L291.14-45.95L292.16-45.18L292.16-45.18Q288.77-40.77 288.06-35.97L288.06-35.97L288.06-35.97Q281.73-37.70 276.48-38.08L276.48-38.08L276.48-38.08Q276.03-31.10 276.03-19.74L276.03-19.74L276.03-19.74Q276.03-8.38 276.86-2.24L276.86-2.24L276.86-2.24Q280.06-1.92 283.90-1.02L283.90-1.02L283.71 0.51L283.71 0.51Q278.98 0 273.44 0L273.44 0L273.44 0Q267.90 0 264.51 0.51L264.51 0.51L264.26-1.09L264.26-1.09Q267.14-1.98 270.40-2.43L270.40-2.43L270.40-2.43Q271.10-7.68 271.10-18.94L271.10-18.94L271.10-22.72L271.10-22.72Q271.10-29.06 270.34-38.27L270.34-38.27L268.67-38.27L268.67-38.27Q261.12-38.27 259.01-36.22L259.01-36.22L259.01-36.22Q258.56-35.33 258.56-33.41L258.56-33.41L258.56-33.41Q258.56-31.49 259.20-30.78L259.20-30.78L259.14-30.34L259.14-30.34Q257.54-29.38 255.94-27.65L255.94-27.65L255.94-27.65Q255.17-27.71 254.69-28.29L254.69-28.29L254.69-28.29Q254.21-28.86 254.21-29.63L254.21-29.63L254.21-29.63Q254.21-32.77 257.98-37.12L257.98-37.12L257.98-37.12Q261.76-41.47 265.02-42.62L265.02-42.62Z" fill="#444"></path></g></g><style>text {
  font-size: 64px;
  font-family: Arial Black;
  dominant-baseline: central;
  text-anchor: middle;
}</style></svg>